<svg xmlns="http://www.w3.org/2000/svg" shape-rendering="geometricPrecision" text-rendering="geometricPrecision" image-rendering="optimizeQuality" fill-rule="evenodd" clip-rule="evenodd" viewBox="0 0 512 351.257"><path fill="#2B2A29" d="M236.563 284.97c18.304 0 33.144 14.839 33.144 33.143 0 18.303-14.84 33.144-33.144 33.144-18.302 0-33.143-14.841-33.143-33.144 0-18.304 14.841-33.143 33.143-33.143zM29.48 117.684c-7.496 6.414-18.774 5.537-25.188-1.959-6.415-7.496-5.538-18.774 1.958-25.189C76.588 30.265 156.239-.682 236.97.012c78.728.675 157.969 31.439 230.049 94.426a17.777 17.777 0 014.839 6.842c-23.099-15.127-50.711-23.935-80.38-23.935-2.837 0-5.655.09-8.451.248-47.7-27.728-97.255-41.476-146.339-41.898-71.983-.617-143.514 27.41-207.208 81.989zm66.973 71.863c-7.379 6.53-18.66 5.841-25.189-1.538-6.53-7.38-5.841-18.66 1.538-25.189 52.587-46.528 108.414-70.31 165.08-69.359 22.193.374 44.361 4.531 66.356 12.588a147.915 147.915 0 00-28.978 28.332c-12.678-3.288-25.336-5.025-37.937-5.236-47.456-.797-95.11 19.913-140.87 60.402zm63.574 63.823c-7.652 6.221-18.898 5.062-25.12-2.59-6.221-7.651-5.062-18.898 2.59-25.119 31.156-25.297 64.978-38.468 99.403-38.57 4.086-.011 8.171.163 12.254.52-2.917 11.341-4.501 23.214-4.602 35.442a98.454 98.454 0 00-7.652-.278c-25.994.076-52.155 10.524-76.873 30.595z"/><path fill="#2B2A29" d="M391.477 103.761c66.558 0 120.523 53.965 120.523 120.525 0 66.558-53.965 120.522-120.523 120.522-66.56 0-120.524-53.964-120.524-120.522 0-66.56 53.964-120.525 120.524-120.525z"/><text x="391" y="232" font-family="Arial,Helvetica,sans-serif" font-size="235" font-weight="bold" fill="#fff" text-anchor="middle" dominant-baseline="central">2</text></svg>
